 <svg id='i-cardback' xmlns="http://www.w3.org/2000/svg" version="1.1" x="0px" y="0px" viewBox="0 0 512 512"  width="28px" height="28px">
          <g>
            <path d="M63.5,288c-4.142,0-7.5,3.358-7.5,7.5v16c0,4.142,3.358,7.5,7.5,7.5s7.5-3.358,7.5-7.5v-16C71,291.358,67.642,288,63.5,288   z" fill="#dddfe6"/>
            <path d="M87.5,288c-4.142,0-7.5,3.358-7.5,7.5v16c0,4.142,3.358,7.5,7.5,7.5s7.5-3.358,7.5-7.5v-16C95,291.358,91.642,288,87.5,288   z" fill="#dddfe6"/>
            <path d="M111.5,288c-4.142,0-7.5,3.358-7.5,7.5v16c0,4.142,3.358,7.5,7.5,7.5s7.5-3.358,7.5-7.5v-16   C119,291.358,115.642,288,111.5,288z" fill="#dddfe6"/>
            <path d="M135.5,288c-4.142,0-7.5,3.358-7.5,7.5v16c0,4.142,3.358,7.5,7.5,7.5s7.5-3.358,7.5-7.5v-16   C143,291.358,139.642,288,135.5,288z" fill="#dddfe6"/>
            <path d="M167.5,319c4.142,0,7.5-3.358,7.5-7.5v-16c0-4.142-3.358-7.5-7.5-7.5s-7.5,3.358-7.5,7.5v16   C160,315.642,163.358,319,167.5,319z" fill="#dddfe6"/>
            <path d="M199,311.5v-16c0-4.142-3.358-7.5-7.5-7.5s-7.5,3.358-7.5,7.5v16c0,4.142,3.358,7.5,7.5,7.5S199,315.642,199,311.5z" fill="#dddfe6"/>
            <path d="M223,311.5v-16c0-4.142-3.358-7.5-7.5-7.5s-7.5,3.358-7.5,7.5v16c0,4.142,3.358,7.5,7.5,7.5S223,315.642,223,311.5z" fill="#dddfe6"/>
            <path d="M239.5,288c-4.142,0-7.5,3.358-7.5,7.5v16c0,4.142,3.358,7.5,7.5,7.5s7.5-3.358,7.5-7.5v-16   C247,291.358,243.642,288,239.5,288z" fill="#dddfe6"/>
            <path d="M271.5,319c4.142,0,7.5-3.358,7.5-7.5v-16c0-4.142-3.358-7.5-7.5-7.5s-7.5,3.358-7.5,7.5v16   C264,315.642,267.358,319,271.5,319z" fill="#dddfe6"/>
            <path d="M303,311.5v-16c0-4.142-3.358-7.5-7.5-7.5s-7.5,3.358-7.5,7.5v16c0,4.142,3.358,7.5,7.5,7.5S303,315.642,303,311.5z" fill="#dddfe6"/>
            <path d="M327,311.5v-16c0-4.142-3.358-7.5-7.5-7.5s-7.5,3.358-7.5,7.5v16c0,4.142,3.358,7.5,7.5,7.5S327,315.642,327,311.5z" fill="#dddfe6"/>
            <path d="M351,311.5v-16c0-4.142-3.358-7.5-7.5-7.5s-7.5,3.358-7.5,7.5v16c0,4.142,3.358,7.5,7.5,7.5S351,315.642,351,311.5z" fill="#dddfe6"/>
            <path d="M383,311.5v-16c0-4.142-3.358-7.5-7.5-7.5s-7.5,3.358-7.5,7.5v16c0,4.142,3.358,7.5,7.5,7.5S383,315.642,383,311.5z" fill="#dddfe6"/>
            <path d="M407,311.5v-16c0-4.142-3.358-7.5-7.5-7.5s-7.5,3.358-7.5,7.5v16c0,4.142,3.358,7.5,7.5,7.5S407,315.642,407,311.5z" fill="#dddfe6"/>
            <path d="M431,311.5v-16c0-4.142-3.358-7.5-7.5-7.5s-7.5,3.358-7.5,7.5v16c0,4.142,3.358,7.5,7.5,7.5S431,315.642,431,311.5z" fill="#dddfe6"/>
            <path d="M447.5,288c-4.142,0-7.5,3.358-7.5,7.5v16c0,4.142,3.358,7.5,7.5,7.5s7.5-3.358,7.5-7.5v-16   C455,291.358,451.642,288,447.5,288z" fill="#dddfe6"/>
            <path d="M447.5,216h-384C50.542,216,40,226.542,40,239.5v8c0,12.958,10.542,23.5,23.5,23.5h384c12.958,0,23.5-10.542,23.5-23.5v-8   C471,226.542,460.458,216,447.5,216z M456,247.5c0,4.687-3.813,8.5-8.5,8.5h-384c-4.687,0-8.5-3.813-8.5-8.5v-8   c0-4.687,3.813-8.5,8.5-8.5h384c4.687,0,8.5,3.813,8.5,8.5V247.5z" fill="#dddfe6"/>
            <path d="M447.5,352h-176c-4.142,0-7.5,3.358-7.5,7.5s3.358,7.5,7.5,7.5h176c4.142,0,7.5-3.358,7.5-7.5S451.642,352,447.5,352z" fill="#dddfe6"/>
            <path d="M239.5,352h-72c-4.142,0-7.5,3.358-7.5,7.5s3.358,7.5,7.5,7.5h72c4.142,0,7.5-3.358,7.5-7.5S243.642,352,239.5,352z" fill="#dddfe6"/>
            <path d="M511,159.498V127.5c0-21.78-17.72-39.5-39.5-39.5h-432C17.72,88,0,105.72,0,127.5v47.998c0,0.001,0,0.003,0,0.005V383.5   C0,405.28,17.72,423,39.5,423h432c21.78,0,39.5-17.72,39.5-39.5V159.502C511,159.501,511,159.499,511,159.498z M496,184h-6.394   l6.394-6.394V184z M449.606,184l41-41H496v13.394L468.394,184H449.606z M409.606,184l41-41h18.787l-41,41H409.606z M369.606,184   l41-41h18.787l-41,41H369.606z M329.606,184l41-41h18.787l-41,41H329.606z M289.606,184l41-41h18.787l-41,41H289.606z M249.606,184   l41-41h18.787l-41,41H249.606z M209.606,184l41-41h18.787l-41,41H209.606z M169.606,184l41-41h18.787l-41,41H169.606z M129.606,184   l41-41h18.787l-41,41H129.606z M89.606,184l41-41h18.787l-41,41H89.606z M49.606,184l41-41h18.787l-41,41H49.606z M15,184v-5.394   L50.606,143h18.787l-41,41H15z M15,143h14.394L15,157.394V143z M39.5,103h432c13.509,0,24.5,10.991,24.5,24.5v0.5h-8.497   c-0.002,0-0.003,0-0.005,0h-39.995c-0.002,0-0.003,0-0.005,0h-39.995c-0.002,0-0.003,0-0.005,0h-39.995c-0.002,0-0.003,0-0.005,0   h-39.995c-0.002,0-0.003,0-0.005,0h-39.995c-0.002,0-0.004,0-0.005,0h-39.995c-0.001,0-0.003,0-0.005,0h-39.995   c-0.001,0-0.003,0-0.005,0h-39.995c-0.001,0-0.003,0-0.005,0h-39.995c-0.001,0-0.003,0-0.005,0H87.502c-0.001,0-0.003,0-0.005,0   H47.502c-0.001,0-0.003,0-0.005,0H15v-0.5C15,113.991,25.991,103,39.5,103z M471.5,408h-432C25.991,408,15,397.009,15,383.5V199   h481v184.5C496,397.009,485.009,408,471.5,408z" fill="#dddfe6"/>
            </g>
          </svg>